<svg id="レイヤー_1" data-name="レイヤー 1" xmlns="http://www.w3.org/2000/svg" viewBox="0 0 38.9 32"><defs><style>.cls-1{fill:#ecc02a;}</style></defs><title>house_icon_z</title><path class="cls-1" d="M15,7.23,16.71,5.9A46.45,46.45,0,0,0,11.92.67L11.19,0l-.73.67C10,1.06,0,10.29,0,18.75a11.2,11.2,0,0,0,2.91,8.11,21.74,21.74,0,0,0,6.16,4l1.61.83.51.27.51-.27,1.57-.8,1-.5V28c-.63.34-1.28.67-2,1l-1.1.56L10.05,29a19.68,19.68,0,0,1-5.56-3.6,9,9,0,0,1-2.31-6.61c0-6.27,6.75-13.52,9-15.77A48.43,48.43,0,0,1,15,7.23Z"/><polygon class="cls-1" points="16.31 8.85 16.31 11.24 18.48 11.24 18.48 9.91 27.6 2.77 36.73 9.91 36.73 29.39 18.48 29.39 18.48 26.11 16.31 26.11 16.31 31.56 38.9 31.56 38.9 8.85 27.6 0.02 16.31 8.85"/></svg>