<svg id="レイヤー_1" data-name="レイヤー 1" xmlns="http://www.w3.org/2000/svg" viewBox="0 0 161.2 153"><defs><style>.cls-1{fill:#fff;}.cls-2,.cls-3{fill:#ecc02a;}.cls-3{fill-rule:evenodd;}</style></defs><title>名称未設定-15</title><circle class="cls-1" cx="81.1" cy="76.5" r="76.5"/><path class="cls-2" d="M37.89,76.53c0-8.4,3.08-16.36,14.88-16.36A26.89,26.89,0,0,1,60,61.25l-.8,4.44a18.1,18.1,0,0,0-6.32-1.16c-7,0-9.8,4.92-9.8,12.08,0,6.8,3.16,11,9.92,11a22.88,22.88,0,0,0,6.68-1.12L60.24,91a26.37,26.37,0,0,1-7.4,1.08c-11.64,0-15-7.28-15-15.52Z"/><path class="cls-2" d="M63.29,76.09c0-7.88,3.52-16,14.4-16s14.4,8.12,14.4,16c0,7.72-3.32,16.2-14.4,16.2-10,0-14.4-7.24-14.4-16.2Zm5.24,0c0,8.72,4,11.84,9.16,11.84,5.36,0,9.16-3.28,9.16-11.88,0-7.84-3.2-11.64-9.16-11.64S68.53,68.25,68.53,76Z"/><path class="cls-2" d="M111.24,68.89c0-2.88-1.92-4.4-5-4.4a17.07,17.07,0,0,0-7.48,2l-1-4.32a21.54,21.54,0,0,1,8.8-2c5,0,9.48,1.88,9.48,8.52,0,3.92-2.12,7.52-6.48,12.08-2.6,2.72-5,4.76-7,6.48h14v4.28H96.73V87.45a86.05,86.05,0,0,0,8-7.72c4.28-4.68,6.56-7.88,6.56-10.8Z"/><path class="cls-3" d="M21,18.67a2.9,2.9,0,0,1,2.18.65c.12,1.46-.49,2-.73,3.06-.26.83-.34,1.89-1.49,1.65C20.16,22.89,21,20.45,21,18.67Z"/><path class="cls-3" d="M21.35,29l1.33.12c.62,2.63-.48,6.68,0,9.4,1.75-.53,2.13-2.7,3.87-3.22-.08-1.41,1.3-1.06,1.53-2.1,1.37.35,1.31-1.42,2.26-.24.39,1.47-1,1.56-1.53,2.1s-.57,1.61-1.49,1.65c-1,1.14-2,2.16-3,3.3.26,1.33,1.45-.13,2.22.2A2.9,2.9,0,0,0,28.84,40l1.77.16c1.66-.15,3.22-.72,4.48,0,.11,1.61-1.44,1.23-2.78,1.09-.27,1.16-2.3.19-2.78,1.09-2.31-.47-3.43.47-5.81-.09-.18,1.25,1.15,1.23,1.61,1.94,1,.23.68,1.62,2.1,1.53.56,1.72,2.58,2.23,2.74,4.28-1.11,0-2.16-.11-2.14-1.09a2,2,0,0,1-1.69-1.05c-1.39-.48-1.79-1.79-2.9-2.5-1,.19-.67,2.69-.28,3.11-.66.14,0,.39-.08.89l-.16,1.77c.17,1.67.59,4.73-.09,5.81-1.69.32-.73-1.58-1.61-1.94.69-4.4-.68-7.08.17-11.62-.9.23-1.29,1.07-1.53,2.1-.68.33-1.47.54-1.49,1.65C17,47.76,16.5,49.44,15,49.89c-.48,1.56-1.29,2.72-2.95,2.86.39-2.65,2.32-3.45,3.19-5.52,1.55-1.1,2.5-2.91,4-4.11-1.26-1.49-3.47.07-5.32-.49C12,42.8,8.94,44.15,9,41.29c2.37-.49,2.75.26,5.81.09,1.1-.48,3.08.09,4.07-.52-.69-1.34-2.28-1.93-3.3-3-.67-1.35-2.91-1.41-2.82-3.39C14.61,33.59,16,36.06,17,37.1c1.44,1.13,2.85,2.28,4.15,3.51-.51-1.49-.08-3.76.09-5.81C21.08,32.91,20.6,30.48,21.35,29Z"/><path class="cls-3" d="M44.53,39.63c-.78,1.1-3.3,1.95-4.56.92C40.05,38.61,43.8,39.23,44.53,39.63Z"/><path class="cls-3" d="M.57,41c1.29-.25,1.09.73,2.18.65C2.74,43,.65,43,0,42.25A2.09,2.09,0,0,0,.57,41Z"/><path class="cls-3" d="M22.37,61.75c1.46.42,1.23,2.26,1,4.11C21.49,65.81,21.38,62.88,22.37,61.75Z"/><path class="cls-3" d="M141.72,76.37a2.4,2.4,0,0,1,1.8.53c.1,1.21-.41,1.68-.6,2.53-.22.69-.28,1.57-1.23,1.37C141.06,79.85,141.72,77.84,141.72,76.37Z"/><path class="cls-3" d="M142,84.9l1.1.1c.51,2.17-.39,5.52,0,7.77,1.44-.44,1.76-2.23,3.2-2.66-.07-1.17,1.08-.88,1.27-1.73,1.13.29,1.08-1.17,1.87-.2.32,1.22-.87,1.29-1.27,1.73s-.47,1.33-1.23,1.37c-.79.95-1.67,1.79-2.47,2.73.21,1.1,1.2-.11,1.83.17a2.4,2.4,0,0,0,1.87-.2l1.47.13c1.38-.12,2.66-.6,3.7,0,.09,1.33-1.19,1-2.3.9-.22,1-1.9.16-2.3.9-1.91-.39-2.83.39-4.8-.07-.15,1,1,1,1.33,1.6.85.19.57,1.34,1.73,1.27.46,1.42,2.13,1.84,2.26,3.53-.91,0-1.79-.09-1.77-.9a1.62,1.62,0,0,1-1.4-.87c-1.15-.4-1.48-1.48-2.4-2.07-.8.16-.55,2.23-.24,2.57-.55.11,0,.33-.07.73l-.13,1.47c.14,1.38.49,3.91-.07,4.8-1.4.26-.61-1.3-1.33-1.6.57-3.64-.56-5.85.14-9.6-.75.19-1.07.89-1.27,1.73-.57.27-1.21.44-1.23,1.37-1.1.57-1.53,2-2.8,2.33-.4,1.29-1.06,2.25-2.44,2.36.32-2.19,1.92-2.85,2.64-4.56,1.28-.91,2.06-2.41,3.27-3.4-1-1.23-2.87.06-4.4-.4-1.5.14-4,1.26-4-1.1,2-.41,2.27.21,4.8.07.91-.4,2.55.08,3.37-.43-.57-1.1-1.88-1.59-2.73-2.47-.56-1.12-2.4-1.16-2.33-2.8,1.5-.74,2.62,1.3,3.5,2.17,1.19.93,2.35,1.88,3.43,2.9-.42-1.23-.06-3.11.07-4.8C141.83,88.13,141.43,86.12,142,84.9Z"/><path class="cls-3" d="M161.2,93.68c-.64.91-2.73,1.61-3.77.76C157.5,92.85,160.6,93.36,161.2,93.68Z"/><path class="cls-3" d="M124.87,94.79c1.06-.21.9.6,1.8.53,0,1.18-1.73,1.19-2.27.53A1.73,1.73,0,0,0,124.87,94.79Z"/><path class="cls-3" d="M142.89,112c1.21.35,1,1.87.8,3.4C142.17,115.33,142.07,112.9,142.89,112Z"/></svg>