<svg id="レイヤー_1" data-name="レイヤー 1" xmlns="http://www.w3.org/2000/svg" viewBox="0 0 153 153"><defs><style>.cls-1{fill:#fafafa;}.cls-2{fill:#aaa;}</style></defs><title>名称未設定-15</title><circle class="cls-1" cx="76.5" cy="76.5" r="76.5"/><path class="cls-2" d="M65.72,63.33v3a1.48,1.48,0,0,0,1.47,1.48H79.55A1.48,1.48,0,0,0,81,66.33v-3a1.48,1.48,0,0,0-1.47-1.47H67.2A1.48,1.48,0,0,0,65.72,63.33Z"/><path class="cls-2" d="M96,87.44h8a13,13,0,0,0-3.17-7.95l-.28-.3c-.18-.2-.36-.4-.56-.58l-.18-.16A13,13,0,0,0,90.93,75H80.68a12.15,12.15,0,0,0-1.59-1V69.73H67.66v4.21a12.54,12.54,0,0,0-1.59,1H55.46v7.91h0v0h7a1.22,1.22,0,0,0,0,.15c0,3.17,3.68,8.19,10.91,8.19s10.91-5,10.91-8.19a1.25,1.25,0,0,0,0-.16h6.66A5.1,5.1,0,0,1,96,87.44ZM76.9,81.65a2.47,2.47,0,0,1,2.18-1,1.94,1.94,0,0,1,.76.22A2.21,2.21,0,0,1,81,82.92a2.68,2.68,0,0,1-.32,1.2,2.63,2.63,0,0,1-1.91,1.41,2,2,0,0,1-1.26-.21,2.27,2.27,0,0,1-1.1-2.4,2.69,2.69,0,0,1,.29-.9,2.83,2.83,0,0,1,.18-.29Z"/><rect class="cls-2" x="71.53" y="57.04" width="3.69" height="3.54"/><path class="cls-2" d="M48,69.5H46.63v20h0v0H48a4.87,4.87,0,0,0,4.87-4.87V74.37A4.87,4.87,0,0,0,48,69.5Z"/><path class="cls-2" d="M106,90a.92.92,0,0,0-.91-.84H94.93A.91.91,0,0,0,94,90l-.38,4.68a.91.91,0,0,0,.91,1h10.91a.92.92,0,0,0,.91-1Z"/><path class="cls-2" d="M59.24,51.71a3.25,3.25,0,0,0,1.48.07L63,51.41l1-.14.35,0q1-.11,1.93-.16l.4,0,1,0a2.3,2.3,0,0,1,2,1.2,4.09,4.09,0,0,0,7.47,0,2.3,2.3,0,0,1,2-1.2l1,0,.4,0q1,0,1.93.16l.35,0,1,.14,2.25.36a3.25,3.25,0,0,0,1.48-.07,3.31,3.31,0,0,0,0-6.31A3.25,3.25,0,0,0,86,45.33l-2.25.36-1,.14-.37,0q-.93.11-1.87.16l-.41,0-1,0a2.21,2.21,0,0,1-1.95-1.14C76.63,43.74,75.48,43,73.37,43s-3.26.74-3.89,1.93a2.21,2.21,0,0,1-1.95,1.14l-1,0-.41,0q-.94,0-1.88-.16l-.37,0-1-.14-2.25-.36a3.26,3.26,0,0,0-1.48.07,3.31,3.31,0,0,0,0,6.31Z"/></svg>