<svg id="レイヤー_1" data-name="レイヤー 1" xmlns="http://www.w3.org/2000/svg" viewBox="0 0 159.21 153"><defs><style>.cls-1{fill:#fafafa;}.cls-2,.cls-3{fill:#aaa;}.cls-3{fill-rule:evenodd;}</style></defs><title>名称未設定-15</title><circle class="cls-1" cx="79.61" cy="76.5" r="76.5"/><path class="cls-2" d="M37.89,76.53c0-8.4,3.08-16.36,14.88-16.36A26.89,26.89,0,0,1,60,61.25l-.8,4.44a18.1,18.1,0,0,0-6.32-1.16c-7,0-9.8,4.92-9.8,12.08,0,6.8,3.16,11,9.92,11a22.88,22.88,0,0,0,6.68-1.12L60.24,91a26.37,26.37,0,0,1-7.4,1.08c-11.64,0-15-7.28-15-15.52Z"/><path class="cls-2" d="M63.29,76.09c0-7.88,3.52-16,14.4-16s14.4,8.12,14.4,16c0,7.72-3.32,16.2-14.4,16.2-10,0-14.4-7.24-14.4-16.2Zm5.24,0c0,8.72,4,11.84,9.16,11.84,5.36,0,9.16-3.28,9.16-11.88,0-7.84-3.2-11.64-9.16-11.64S68.53,68.25,68.53,76Z"/><path class="cls-2" d="M111.24,68.89c0-2.88-1.92-4.4-5-4.4a17.07,17.07,0,0,0-7.48,2l-1-4.32a21.54,21.54,0,0,1,8.8-2c5,0,9.48,1.88,9.48,8.52,0,3.92-2.12,7.52-6.48,12.08-2.6,2.72-5,4.76-7,6.48h14v4.28H96.73V87.45a86.05,86.05,0,0,0,8-7.72c4.28-4.68,6.56-7.88,6.56-10.8Z"/><path class="cls-3" d="M21,18.67a2.9,2.9,0,0,1,2.18.65c.12,1.46-.49,2-.73,3.06-.26.83-.34,1.89-1.49,1.65C20.16,22.89,21,20.45,21,18.67Z"/><path class="cls-3" d="M21.35,29l1.33.12c.62,2.63-.48,6.68,0,9.4,1.75-.53,2.13-2.7,3.87-3.22-.08-1.41,1.3-1.06,1.53-2.1,1.37.35,1.31-1.42,2.26-.24.39,1.47-1,1.56-1.53,2.1s-.57,1.61-1.49,1.65c-1,1.14-2,2.16-3,3.3.26,1.33,1.45-.13,2.22.2A2.9,2.9,0,0,0,28.84,40l1.77.16c1.66-.15,3.22-.72,4.48,0,.11,1.61-1.44,1.23-2.78,1.09-.27,1.16-2.3.19-2.78,1.09-2.31-.47-3.43.47-5.81-.09-.18,1.25,1.15,1.23,1.61,1.94,1,.23.68,1.62,2.1,1.53.56,1.72,2.58,2.23,2.74,4.28-1.11,0-2.16-.11-2.14-1.09a2,2,0,0,1-1.69-1.05c-1.39-.48-1.79-1.79-2.9-2.5-1,.19-.67,2.69-.28,3.11-.66.14,0,.39-.08.89l-.16,1.77c.17,1.67.59,4.73-.09,5.81-1.69.32-.73-1.58-1.61-1.94.69-4.4-.68-7.08.17-11.62-.9.23-1.29,1.07-1.53,2.1-.68.33-1.47.54-1.49,1.65C17,47.76,16.5,49.44,15,49.89c-.48,1.56-1.29,2.72-2.95,2.86.39-2.65,2.32-3.45,3.19-5.52,1.55-1.1,2.5-2.91,4-4.11-1.26-1.49-3.47.07-5.32-.49C12,42.8,8.94,44.15,9,41.29c2.37-.49,2.75.26,5.81.09,1.1-.48,3.08.09,4.07-.52-.69-1.34-2.28-1.93-3.3-3-.67-1.35-2.91-1.41-2.82-3.39C14.61,33.59,16,36.06,17,37.1c1.44,1.13,2.85,2.28,4.15,3.51-.51-1.49-.08-3.76.09-5.81C21.08,32.91,20.6,30.48,21.35,29Z"/><path class="cls-3" d="M44.53,39.63c-.78,1.1-3.3,1.95-4.56.92C40.05,38.61,43.8,39.23,44.53,39.63Z"/><path class="cls-3" d="M.57,41c1.29-.25,1.09.73,2.18.65C2.74,43,.65,43,0,42.25A2.09,2.09,0,0,0,.57,41Z"/><path class="cls-3" d="M22.37,61.75c1.46.42,1.23,2.26,1,4.11C21.49,65.81,21.38,62.88,22.37,61.75Z"/><path class="cls-3" d="M140.84,76.29a2.26,2.26,0,0,1,1.7.5c.1,1.14-.38,1.59-.57,2.39-.21.65-.26,1.48-1.16,1.29C140.22,79.57,140.84,77.67,140.84,76.29Z"/><path class="cls-3" d="M141.15,84.33l1,.1c.48,2-.37,5.21,0,7.32,1.36-.41,1.66-2.1,3-2.51-.06-1.1,1-.83,1.2-1.63,1.07.27,1-1.11,1.76-.19.3,1.15-.82,1.21-1.2,1.63s-.45,1.25-1.16,1.29c-.75.89-1.58,1.68-2.33,2.58.2,1,1.13-.1,1.73.16a2.26,2.26,0,0,0,1.76-.19l1.38.13c1.3-.12,2.51-.56,3.49,0,.09,1.26-1.12,1-2.17.85-.21.9-1.79.15-2.17.85-1.8-.37-2.67.37-4.53-.07-.14,1,.9,1,1.26,1.51.81.18.53,1.26,1.63,1.2.43,1.34,2,1.73,2.13,3.33-.86,0-1.68-.09-1.66-.85A1.53,1.53,0,0,1,145,99c-1.08-.38-1.4-1.39-2.26-2-.76.15-.52,2.1-.22,2.42-.52.11,0,.31-.06.69l-.13,1.38c.13,1.3.46,3.69-.07,4.53-1.32.25-.57-1.23-1.26-1.51.54-3.43-.53-5.52.13-9.05-.7.18-1,.84-1.2,1.63-.53.25-1.14.42-1.16,1.29-1,.54-1.44,1.85-2.64,2.2-.38,1.21-1,2.12-2.3,2.23.3-2.07,1.81-2.69,2.49-4.3,1.21-.85,1.94-2.27,3.08-3.2-1-1.16-2.7.06-4.15-.38-1.41.14-3.81,1.19-3.74-1,1.85-.39,2.14.2,4.53.07.86-.38,2.4.07,3.17-.41-.54-1-1.78-1.5-2.58-2.33-.52-1.05-2.26-1.1-2.2-2.64,1.41-.69,2.47,1.23,3.3,2,1.12.88,2.22,1.77,3.24,2.74-.4-1.16-.06-2.93.07-4.53C140.94,87.38,140.57,85.48,141.15,84.33Z"/><path class="cls-3" d="M159.21,92.61c-.6.86-2.58,1.52-3.55.72C155.73,91.83,158.65,92.31,159.21,92.61Z"/><path class="cls-3" d="M125,93.66c1-.2.85.57,1.7.5,0,1.12-1.63,1.12-2.14.5A1.63,1.63,0,0,0,125,93.66Z"/><path class="cls-3" d="M141.94,109.86c1.14.33,1,1.76.75,3.21C141.26,113,141.17,110.73,141.94,109.86Z"/></svg>