<svg id="レイヤー_1" data-name="レイヤー 1" xmlns="http://www.w3.org/2000/svg" viewBox="0 0 116.32 65.37"><defs><style>.cls-1{fill:#fff;fill-rule:evenodd;}</style></defs><title>名称未設定-15</title><path class="cls-1" d="M100.71,25.41l-3,.32c0,5.78-1.84,10.1-1.28,16.34-5,1.2-9.38-2.84-13.12.4.22,6.16,7.13,4,12.56,3.71.85,6.78-.48,11.8,1.05,19.13,2.77.4,1.71-2.28,2.68-3.33.39-1.51-1.73-5,.46-5.12-1.05-4.2,0-6.7-.08-10.12,6-.23,9.79,2.22,16.34,1.28-.33-3.76-4.3-3-7.44-3.25-2.54-.63-4.59-1.87-8.23-1.14C98.68,36.37,103.56,30.43,100.71,25.41Z"/><path class="cls-1" d="M22.14.09c-1.59-.44-1.82.78-3.1.72-.15,2.9-1.17,6.51.25,8.12-.17,3.84-1.39,8.55,2.16,9.31,0-6,2.6-8.77,2.42-14.95C24.63,1.12,22.09,1.68,22.14.09Z"/><path class="cls-1" d="M0,20.27c3.39,1.54,11.48,3,15,1.41.77-3.1-.87-4.21-2.54-5.29-.64,2.2-5-.06-7.11.34C4.47,18.94-.34,16.49,0,20.27Z"/><path class="cls-1" d="M26.28,20.71c.53,2.33,5.59.92,7.93,1.76,2.45-.39,7.16,1.94,8.12-.25,1.29-3.53-3.82-1.77-5.83-2.57-.64,2.2-5-.06-7.11.34C29.11,21.15,27.47,20.67,26.28,20.71Z"/><path class="cls-1" d="M20.51,28.26c-3.64.86-3.28,11.1-2.32,13.94C21.4,40.83,21.74,31.44,20.51,28.26Z"/></svg>