<svg id="レイヤー_1" data-name="レイヤー 1" xmlns="http://www.w3.org/2000/svg" viewBox="0 0 153 153"><defs><style>.cls-1{fill:#fff;}.cls-2{fill:#ecc02a;}</style></defs><title>名称未設定-15</title><circle class="cls-1" cx="76.5" cy="76.5" r="76.5"/><path class="cls-2" d="M91.16,74.49V59.8a4.94,4.94,0,0,0-2-4l-6.44-4.8V47.91h.94V41A3.64,3.64,0,0,0,80,37.36H73.68A3.64,3.64,0,0,0,70,41v6.92H71v3.14l-6.44,4.8a4.94,4.94,0,0,0-2,4V74.49l2,2a5.45,5.45,0,0,0-1.51,3.78v22.79A6.92,6.92,0,0,0,70,110H83.73a6.92,6.92,0,0,0,6.92-6.92V80.29a5.44,5.44,0,0,0-1.51-3.78l1.2-1.2ZM65.88,103.08V80.29a2.68,2.68,0,0,1,.78-1.89,2.66,2.66,0,0,0,.22-3.53h20a2.66,2.66,0,0,0,.22,3.51,2.67,2.67,0,0,1,.78,1.89v22.79a4.11,4.11,0,0,1-4.12,4.12H70a4.12,4.12,0,0,1-4.11-4.12Zm19-46.89H76l-7.15,0,5-3.71V47.91h6.15v4.55l2.79,2.08ZM81.34,41.33v4.24h-9V41a1.3,1.3,0,0,1,1.3-1.3H80a1.3,1.3,0,0,1,1.3,1.3v.34Z"/><rect class="cls-2" x="71.28" y="80.57" width="1.87" height="21.63"/><rect class="cls-2" x="80.58" y="80.57" width="1.87" height="21.63"/><rect class="cls-2" x="70.32" y="77.13" width="13.07" height="0.93"/><path class="cls-2" d="M65.74,70.13V55.44a4.94,4.94,0,0,0-2-4l-6.44-4.8V43.55h.94V36.63A3.64,3.64,0,0,0,54.62,33H48.26a3.64,3.64,0,0,0-3.64,3.63v6.92h.94V46.7l-6.44,4.8a4.94,4.94,0,0,0-2,4V70.13l2,2a5.45,5.45,0,0,0-1.51,3.78V98.72a6.92,6.92,0,0,0,6.92,6.92H58.31a6.92,6.92,0,0,0,6.92-6.92V75.93a5.44,5.44,0,0,0-1.51-3.78l1.2-1.2ZM40.45,98.72V75.93A2.68,2.68,0,0,1,41.23,74a2.66,2.66,0,0,0,.22-3.53h20A2.66,2.66,0,0,0,61.64,74a2.67,2.67,0,0,1,.78,1.89V98.72a4.11,4.11,0,0,1-4.12,4.12H44.57a4.12,4.12,0,0,1-4.11-4.12Zm19-46.89h-9l-7.15,0,5-3.71V43.55h6.15V48.1l2.79,2.08ZM55.92,37v4.24H47V36.63a1.3,1.3,0,0,1,1.3-1.3h6.36a1.3,1.3,0,0,1,1.3,1.3V37Z"/><rect class="cls-2" x="45.85" y="76.21" width="1.87" height="21.63"/><rect class="cls-2" x="55.16" y="76.21" width="1.87" height="21.63"/><rect class="cls-2" x="44.9" y="72.77" width="13.07" height="0.93"/><path class="cls-2" d="M115.86,70.13V55.44a4.94,4.94,0,0,0-2-4l-6.44-4.8V43.55h.94V36.63A3.64,3.64,0,0,0,104.74,33H98.38a3.64,3.64,0,0,0-3.64,3.63v6.92h.94V46.7l-6.44,4.8a4.94,4.94,0,0,0-2,4V70.13l2,2a5.45,5.45,0,0,0-1.51,3.78V98.72a6.92,6.92,0,0,0,6.92,6.92h13.74a6.92,6.92,0,0,0,6.92-6.92V75.93a5.44,5.44,0,0,0-1.51-3.78l1.2-1.2ZM90.58,98.72V75.93A2.68,2.68,0,0,1,91.36,74a2.66,2.66,0,0,0,.22-3.53h20a2.66,2.66,0,0,0,.22,3.51,2.67,2.67,0,0,1,.78,1.89V98.72a4.11,4.11,0,0,1-4.12,4.12H94.69a4.12,4.12,0,0,1-4.11-4.12Zm19-46.89h-9l-7.15,0,5-3.71V43.55h6.15V48.1l2.79,2.08ZM106,37v4.24h-9V36.63a1.3,1.3,0,0,1,1.3-1.3h6.36a1.3,1.3,0,0,1,1.3,1.3V37Z"/><rect class="cls-2" x="95.97" y="76.21" width="1.87" height="21.63"/><rect class="cls-2" x="105.28" y="76.21" width="1.87" height="21.63"/><rect class="cls-2" x="95.02" y="72.77" width="13.07" height="0.93"/></svg>