<svg id="レイヤー_1" data-name="レイヤー 1" xmlns="http://www.w3.org/2000/svg" viewBox="0 0 93.9 88.21"><defs><style>.cls-1{opacity:0.8;}.cls-2{fill:#ecc02a;fill-rule:evenodd;}</style></defs><title>名称未設定-15</title><g class="cls-1"><path class="cls-2" d="M47.92.12c2.67-.71,2,1.94,3.91,2-.37,6.47-1.55,12.14-3.91,16.63-4.17-.07-.08-8.39-2.93-9.78,1.12-1.16,1.11-3.46,1-5.87A6.91,6.91,0,0,0,47.92.12Z"/><path class="cls-2" d="M25.43,12.84c4.12-.21,3.45,4.38,5.87,5.87C30.15,22.91,22.74,15.5,25.43,12.84Z"/><path class="cls-2" d="M77.27,24.57c.26,3.19-3.79,2.07-3.91,4.89-3-.1-2.79,3.08-6.85,2C66.27,25.31,73,26.22,77.27,24.57Z"/><path class="cls-2" d="M46.95,31.42c-.18-.83.38-.92,1-1h5.87c.16,1.15,1.78.83,2.93,1a2.7,2.7,0,0,0,2.93,2c1.42,3.15,3.65,5.48,4.89,8.8,1.13,9.28-3,13.35-6.85,17.6-2.51.1-4.66.55-5.87,2-4.8-.42-9.12-1.31-13.69-2C36,56.1,31.56,54.63,31.3,49,32.53,40.15,38.78,36.29,44,31.42Z"/><path class="cls-2" d="M16.63,47.07c-3.32.27-7.93-.76-9.78,1-2.5-1.68-3.42,1.12-4.89-1-1.66.36-1.85-.76-2-2,1.42-1.51,5-.86,7.82-1C9.63,46.24,16.67,43.12,16.63,47.07Z"/><path class="cls-2" d="M93.89,52.94a83.38,83.38,0,0,1-18.58-2V48c1.26-1.35,4.25-1,6.85-1,2.77.16,4.08,1.79,6.85,2C90.41,50.56,94.1,49.79,93.89,52.94Z"/><path class="cls-2" d="M26.41,62.72c-2.28,3.26-1.92,9.17-7.82,8.8C15.33,66.23,21.51,63,26.41,62.72Z"/><path class="cls-2" d="M71.4,75.43c-3-.58-6.92-.25-6.85-3.91C66.33,70.23,71.24,72.08,71.4,75.43Z"/><path class="cls-2" d="M44,72.5c4.54.2.37,5.39,1,7.82a25.81,25.81,0,0,1-2.93,7.82c-2.66.7.7-4.61-2-3.91C42,80.92,41,74.66,44,72.5Z"/></g></svg>